# xmcd CD database file
#
# Track frame offsets:
#	150
#	17682
#	37062
#	52765
#	70335
#	89307
#	103727
#	125097
#	140865
#	156062
#	172830
#	192252
#	208985
#	225090
#	243962
#	264100
#	286320
#	321682
#
# Disc length: 4590 seconds
#
# Revision: 0
# Processed by: cddbd v1.5.1PL0 Copyright (c) Steve Scherf et al.
# Submitted via: CDex 1.51
#
DISCID=0011ec12
DTITLE=中原めいこ - ゴールデン☆ベスト
DYEAR=2004
DGENRE=JPop
TTITLE0=今夜だけDance・Dance・Dance
TTITLE1=Go away
TTITLE2=フライデイ・マジック
TTITLE3=月夜に気をつけて!
TTITLE4=スコーピオン
TTITLE5=君たちキウイ・パパイア・マンゴーだね。
TTITLE6=ふたりのRainy day
TTITLE7=エモーション
TTITLE8=やきもちやきルンバ・ボーイ
TTITLE9=ロ・ロ・ロ・ロシアンルーレット
TTITLE10=恋われたピアノ
TTITLE11=アンバランス・ゾーン
TTITLE12=鏡の中のアクトレス
TTITLE13=Dance In The Memories
TTITLE14=ダイヤモンド見分けなさい-Is it true love-
TTITLE15=Fortune-銀の月夜のハネムーン-
TTITLE16=ファンキー・クリスマス(Long Version)
TTITLE17=ジェミニ(Special Party Version
EXTD=YEAR: 2004
EXTT0=
EXTT1=
EXTT2=
EXTT3=
EXTT4=
EXTT5=
EXTT6=
EXTT7=
EXTT8=
EXTT9=
EXTT10=
EXTT11=
EXTT12=
EXTT13=
EXTT14=
EXTT15=
EXTT16=
EXTT17=
PLAYORDER=
